<svg xmlns="http://www.w3.org/2000/svg" version="1.1" xmlns:xlink="http://www.w3.org/1999/xlink" xmlns:svgjs="http://svgjs.dev/svgjs" width="1440" height="1440" preserveAspectRatio="none" viewBox="0 0 1440 1440"><g mask="url(&quot;#SvgjsMask1284&quot;)" fill="none"><rect width="1440" height="1440" x="0" y="0" fill="rgba(0, 37, 44, 1)"></rect><g mask="url(&quot;#SvgjsMask1285&quot;)"><path d="M712.5 1037.5L737.5 1012.5L737.5 987.5L737.5 962.5M712.5 1462.5L712.5 1437.5L712.5 1412.5L712.5 1387.5L712.5 1362.5L712.5 1337.5L712.5 1312.5L712.5 1287.5L712.5 1262.5L712.5 1237.5L712.5 1212.5L712.5 1187.5L712.5 1162.5L712.5 1137.5L712.5 1112.5L712.5 1087.5L712.5 1062.5L712.5 1037.5L712.5 1012.5L712.5 987.5L712.5 962.5L712.5 937.5" stroke="rgba(152, 232, 193, 1)" stroke-width="4.17"></path><path d="M706.25 937.5 a6.25 6.25 0 1 0 12.5 0 a6.25 6.25 0 1 0 -12.5 0zM731.25 962.5 a6.25 6.25 0 1 0 12.5 0 a6.25 6.25 0 1 0 -12.5 0z" fill="rgba(152, 232, 193, 1)"></path><path d="M737.5 1412.5L762.5 1387.5L762.5 1362.5L762.5 1337.5M762.5 1012.5L787.5 987.5L787.5 962.5L787.5 937.5L787.5 912.5L787.5 887.5M762.5 612.5L787.5 587.5L812.5 562.5L812.5 537.5M762.5 487.5L787.5 462.5L787.5 437.5L787.5 412.5L762.5 387.5L762.5 362.5L762.5 337.5L762.5 312.5L762.5 287.5M737.5 1437.5L762.5 1412.5M737.5 1187.5L762.5 1162.5L787.5 1137.5L787.5 1112.5L762.5 1087.5M737.5 362.5L712.5 337.5L712.5 312.5L712.5 287.5M762.5 1037.5L787.5 1012.5L812.5 987.5L812.5 962.5L812.5 937.5L812.5 912.5L812.5 887.5L812.5 862.5L812.5 837.5L812.5 812.5L812.5 787.5L837.5 762.5L837.5 737.5L837.5 712.5L837.5 687.5M762.5 937.5L737.5 912.5L737.5 887.5L737.5 862.5L737.5 837.5L737.5 812.5L737.5 787.5M787.5 862.5L762.5 837.5L762.5 812.5L762.5 787.5L762.5 762.5L762.5 737.5L762.5 712.5L762.5 687.5M762.5 887.5L762.5 862.5M737.5 1462.5L737.5 1437.5L737.5 1412.5L737.5 1387.5L737.5 1362.5L737.5 1337.5L737.5 1312.5L737.5 1287.5L737.5 1262.5L737.5 1237.5L737.5 1212.5L737.5 1187.5L737.5 1162.5L737.5 1137.5L737.5 1112.5L737.5 1087.5L762.5 1062.5L762.5 1037.5L762.5 1012.5L762.5 987.5L762.5 962.5L762.5 937.5L762.5 912.5L762.5 887.5L787.5 862.5L787.5 837.5L787.5 812.5L787.5 787.5L787.5 762.5L787.5 737.5L787.5 712.5L787.5 687.5L787.5 662.5L762.5 637.5L762.5 612.5L762.5 587.5L762.5 562.5L762.5 537.5L762.5 512.5L762.5 487.5L762.5 462.5L737.5 437.5L737.5 412.5L737.5 387.5L737.5 362.5L737.5 337.5" stroke="rgba(255, 255, 255, 1)" stroke-width="4.17"></path><path d="M731.25 337.5 a6.25 6.25 0 1 0 12.5 0 a6.25 6.25 0 1 0 -12.5 0zM756.25 1337.5 a6.25 6.25 0 1 0 12.5 0 a6.25 6.25 0 1 0 -12.5 0zM781.25 887.5 a6.25 6.25 0 1 0 12.5 0 a6.25 6.25 0 1 0 -12.5 0zM806.25 537.5 a6.25 6.25 0 1 0 12.5 0 a6.25 6.25 0 1 0 -12.5 0zM756.25 287.5 a6.25 6.25 0 1 0 12.5 0 a6.25 6.25 0 1 0 -12.5 0zM756.25 1412.5 a6.25 6.25 0 1 0 12.5 0 a6.25 6.25 0 1 0 -12.5 0zM756.25 1087.5 a6.25 6.25 0 1 0 12.5 0 a6.25 6.25 0 1 0 -12.5 0zM706.25 287.5 a6.25 6.25 0 1 0 12.5 0 a6.25 6.25 0 1 0 -12.5 0zM831.25 687.5 a6.25 6.25 0 1 0 12.5 0 a6.25 6.25 0 1 0 -12.5 0zM731.25 787.5 a6.25 6.25 0 1 0 12.5 0 a6.25 6.25 0 1 0 -12.5 0zM756.25 687.5 a6.25 6.25 0 1 0 12.5 0 a6.25 6.25 0 1 0 -12.5 0zM756.25 862.5 a6.25 6.25 0 1 0 12.5 0 a6.25 6.25 0 1 0 -12.5 0z" fill="rgba(255, 255, 255, 1)"></path><path d="M687.5 962.5L662.5 937.5L662.5 912.5L662.5 887.5M662.5 837.5L687.5 812.5L687.5 787.5L687.5 762.5L712.5 737.5L712.5 712.5L712.5 687.5L712.5 662.5L712.5 637.5L712.5 612.5M687.5 1137.5L662.5 1112.5L662.5 1087.5L662.5 1062.5L662.5 1037.5M687.5 1012.5L662.5 987.5L662.5 962.5M662.5 862.5L687.5 837.5L712.5 812.5L712.5 787.5L712.5 762.5L737.5 737.5M687.5 1162.5L662.5 1137.5L637.5 1112.5M687.5 1462.5L687.5 1437.5L687.5 1412.5L687.5 1387.5L687.5 1362.5L687.5 1337.5L687.5 1312.5L687.5 1287.5L687.5 1262.5L687.5 1237.5L687.5 1212.5L687.5 1187.5L687.5 1162.5L687.5 1137.5L687.5 1112.5L687.5 1087.5L687.5 1062.5L687.5 1037.5L687.5 1012.5L687.5 987.5L687.5 962.5L687.5 937.5L687.5 912.5L687.5 887.5L662.5 862.5L662.5 837.5L662.5 812.5L662.5 787.5L662.5 762.5L662.5 737.5L662.5 712.5" stroke="rgba(255, 255, 255, 1)" stroke-width="4.17"></path><path d="M656.25 712.5 a6.25 6.25 0 1 0 12.5 0 a6.25 6.25 0 1 0 -12.5 0zM656.25 887.5 a6.25 6.25 0 1 0 12.5 0 a6.25 6.25 0 1 0 -12.5 0zM706.25 612.5 a6.25 6.25 0 1 0 12.5 0 a6.25 6.25 0 1 0 -12.5 0zM656.25 1037.5 a6.25 6.25 0 1 0 12.5 0 a6.25 6.25 0 1 0 -12.5 0zM656.25 962.5 a6.25 6.25 0 1 0 12.5 0 a6.25 6.25 0 1 0 -12.5 0zM731.25 737.5 a6.25 6.25 0 1 0 12.5 0 a6.25 6.25 0 1 0 -12.5 0zM631.25 1112.5 a6.25 6.25 0 1 0 12.5 0 a6.25 6.25 0 1 0 -12.5 0z" fill="rgba(255, 255, 255, 1)"></path><path d="M787.5 1437.5L812.5 1412.5L812.5 1387.5L812.5 1362.5M762.5 1462.5L787.5 1437.5L787.5 1412.5L787.5 1387.5L787.5 1362.5" stroke="rgba(80, 73, 204, 1)" stroke-width="4.17"></path><path d="M781.25 1362.5 a6.25 6.25 0 1 0 12.5 0 a6.25 6.25 0 1 0 -12.5 0zM806.25 1362.5 a6.25 6.25 0 1 0 12.5 0 a6.25 6.25 0 1 0 -12.5 0z" fill="rgba(80, 73, 204, 1)"></path><path d="M662.5 1187.5L662.5 1162.5M662.5 1462.5L662.5 1437.5L662.5 1412.5L662.5 1387.5L662.5 1362.5L662.5 1337.5L662.5 1312.5L662.5 1287.5L662.5 1262.5L662.5 1237.5L662.5 1212.5L662.5 1187.5L637.5 1162.5" stroke="rgba(61, 26, 120, 1)" stroke-width="4.17"></path><path d="M631.25 1162.5 a6.25 6.25 0 1 0 12.5 0 a6.25 6.25 0 1 0 -12.5 0zM656.25 1162.5 a6.25 6.25 0 1 0 12.5 0 a6.25 6.25 0 1 0 -12.5 0z" fill="rgba(61, 26, 120, 1)"></path><path d="M612.5 662.5L637.5 637.5L637.5 612.5L637.5 587.5L637.5 562.5M612.5 1062.5L637.5 1037.5M612.5 537.5L587.5 512.5M612.5 462.5L637.5 437.5L662.5 412.5L662.5 387.5M612.5 562.5L587.5 537.5M637.5 837.5L612.5 812.5L612.5 787.5L612.5 762.5L612.5 737.5L612.5 712.5L612.5 687.5L587.5 662.5L587.5 637.5L587.5 612.5L587.5 587.5L587.5 562.5L562.5 537.5L562.5 512.5M637.5 687.5L637.5 662.5L662.5 637.5L662.5 612.5L662.5 587.5L662.5 562.5M637.5 862.5L612.5 837.5L587.5 812.5L587.5 787.5L587.5 762.5L587.5 737.5L587.5 712.5M612.5 962.5L612.5 937.5L612.5 912.5L612.5 887.5L612.5 862.5L587.5 837.5M612.5 437.5L612.5 412.5L612.5 387.5L612.5 362.5L612.5 337.5L612.5 312.5L612.5 287.5M637.5 1262.5L612.5 1237.5L612.5 1212.5L612.5 1187.5M637.5 1462.5L637.5 1437.5L637.5 1412.5L637.5 1387.5L637.5 1362.5L637.5 1337.5L637.5 1312.5L637.5 1287.5L637.5 1262.5L637.5 1237.5L637.5 1212.5L637.5 1187.5L612.5 1162.5L612.5 1137.5L612.5 1112.5L612.5 1087.5L612.5 1062.5L612.5 1037.5L612.5 1012.5L612.5 987.5L612.5 962.5L637.5 937.5L637.5 912.5L637.5 887.5L637.5 862.5L637.5 837.5L637.5 812.5L637.5 787.5L637.5 762.5L637.5 737.5L637.5 712.5L637.5 687.5L612.5 662.5L612.5 637.5L612.5 612.5L612.5 587.5L612.5 562.5L612.5 537.5L612.5 512.5L612.5 487.5L612.5 462.5L612.5 437.5L637.5 412.5L637.5 387.5L637.5 362.5" stroke="rgba(123, 173, 226, 1)" stroke-width="4.17"></path><path d="M631.25 362.5 a6.25 6.25 0 1 0 12.5 0 a6.25 6.25 0 1 0 -12.5 0zM631.25 562.5 a6.25 6.25 0 1 0 12.5 0 a6.25 6.25 0 1 0 -12.5 0zM631.25 1037.5 a6.25 6.25 0 1 0 12.5 0 a6.25 6.25 0 1 0 -12.5 0zM581.25 512.5 a6.25 6.25 0 1 0 12.5 0 a6.25 6.25 0 1 0 -12.5 0zM656.25 387.5 a6.25 6.25 0 1 0 12.5 0 a6.25 6.25 0 1 0 -12.5 0zM581.25 537.5 a6.25 6.25 0 1 0 12.5 0 a6.25 6.25 0 1 0 -12.5 0zM556.25 512.5 a6.25 6.25 0 1 0 12.5 0 a6.25 6.25 0 1 0 -12.5 0zM656.25 562.5 a6.25 6.25 0 1 0 12.5 0 a6.25 6.25 0 1 0 -12.5 0zM581.25 712.5 a6.25 6.25 0 1 0 12.5 0 a6.25 6.25 0 1 0 -12.5 0zM581.25 837.5 a6.25 6.25 0 1 0 12.5 0 a6.25 6.25 0 1 0 -12.5 0zM606.25 287.5 a6.25 6.25 0 1 0 12.5 0 a6.25 6.25 0 1 0 -12.5 0zM606.25 1187.5 a6.25 6.25 0 1 0 12.5 0 a6.25 6.25 0 1 0 -12.5 0z" fill="rgba(123, 173, 226, 1)"></path><path d="M862.5 1087.5L837.5 1062.5L837.5 1037.5L812.5 1012.5M862.5 1112.5L837.5 1087.5L812.5 1062.5L812.5 1037.5M837.5 1312.5L812.5 1287.5L812.5 1262.5L812.5 1237.5M862.5 1012.5L837.5 987.5L837.5 962.5L837.5 937.5M862.5 937.5L862.5 912.5L862.5 887.5L862.5 862.5L862.5 837.5M837.5 1237.5L837.5 1212.5L837.5 1187.5L837.5 1162.5L837.5 1137.5L837.5 1112.5L812.5 1087.5L787.5 1062.5L787.5 1037.5M837.5 1337.5L812.5 1312.5L787.5 1287.5L787.5 1262.5L787.5 1237.5M812.5 1462.5L837.5 1437.5L837.5 1412.5L837.5 1387.5L837.5 1362.5L837.5 1337.5L837.5 1312.5L837.5 1287.5L837.5 1262.5L837.5 1237.5L862.5 1212.5L862.5 1187.5L862.5 1162.5L862.5 1137.5L862.5 1112.5L862.5 1087.5L862.5 1062.5L862.5 1037.5L862.5 1012.5L862.5 987.5L862.5 962.5L862.5 937.5L887.5 912.5L887.5 887.5L887.5 862.5L887.5 837.5L887.5 812.5L887.5 787.5" stroke="rgba(80, 73, 204, 1)" stroke-width="4.17"></path><path d="M881.25 787.5 a6.25 6.25 0 1 0 12.5 0 a6.25 6.25 0 1 0 -12.5 0zM806.25 1012.5 a6.25 6.25 0 1 0 12.5 0 a6.25 6.25 0 1 0 -12.5 0zM806.25 1037.5 a6.25 6.25 0 1 0 12.5 0 a6.25 6.25 0 1 0 -12.5 0zM806.25 1237.5 a6.25 6.25 0 1 0 12.5 0 a6.25 6.25 0 1 0 -12.5 0zM831.25 937.5 a6.25 6.25 0 1 0 12.5 0 a6.25 6.25 0 1 0 -12.5 0zM856.25 837.5 a6.25 6.25 0 1 0 12.5 0 a6.25 6.25 0 1 0 -12.5 0zM781.25 1037.5 a6.25 6.25 0 1 0 12.5 0 a6.25 6.25 0 1 0 -12.5 0zM781.25 1237.5 a6.25 6.25 0 1 0 12.5 0 a6.25 6.25 0 1 0 -12.5 0z" fill="rgba(80, 73, 204, 1)"></path><path d="M612.5 1362.5L587.5 1337.5L587.5 1312.5L612.5 1287.5M612.5 1462.5L612.5 1437.5L612.5 1412.5L612.5 1387.5L612.5 1362.5L612.5 1337.5L612.5 1312.5" stroke="rgba(152, 232, 193, 1)" stroke-width="4.17"></path><path d="M606.25 1312.5 a6.25 6.25 0 1 0 12.5 0 a6.25 6.25 0 1 0 -12.5 0zM606.25 1287.5 a6.25 6.25 0 1 0 12.5 0 a6.25 6.25 0 1 0 -12.5 0z" fill="rgba(152, 232, 193, 1)"></path><path d="M587.5 1087.5L562.5 1062.5L537.5 1037.5L537.5 1012.5L537.5 987.5L537.5 962.5M562.5 787.5L537.5 762.5L537.5 737.5L537.5 712.5L537.5 687.5M562.5 937.5L587.5 912.5L587.5 887.5L587.5 862.5M562.5 837.5L537.5 812.5L537.5 787.5M587.5 1037.5L562.5 1012.5L562.5 987.5M562.5 1412.5L587.5 1387.5M587.5 1212.5L587.5 1187.5L587.5 1162.5M587.5 1462.5L587.5 1437.5L562.5 1412.5L562.5 1387.5L562.5 1362.5L537.5 1337.5L537.5 1312.5L537.5 1287.5L562.5 1262.5L587.5 1237.5L587.5 1212.5L562.5 1187.5L562.5 1162.5L587.5 1137.5L587.5 1112.5L587.5 1087.5L587.5 1062.5L587.5 1037.5L587.5 1012.5L587.5 987.5L562.5 962.5L562.5 937.5L562.5 912.5L562.5 887.5L562.5 862.5L562.5 837.5L562.5 812.5L562.5 787.5L562.5 762.5L562.5 737.5L562.5 712.5" stroke="rgba(152, 232, 193, 1)" stroke-width="4.17"></path><path d="M556.25 712.5 a6.25 6.25 0 1 0 12.5 0 a6.25 6.25 0 1 0 -12.5 0zM531.25 962.5 a6.25 6.25 0 1 0 12.5 0 a6.25 6.25 0 1 0 -12.5 0zM531.25 687.5 a6.25 6.25 0 1 0 12.5 0 a6.25 6.25 0 1 0 -12.5 0zM581.25 862.5 a6.25 6.25 0 1 0 12.5 0 a6.25 6.25 0 1 0 -12.5 0zM531.25 787.5 a6.25 6.25 0 1 0 12.5 0 a6.25 6.25 0 1 0 -12.5 0zM556.25 987.5 a6.25 6.25 0 1 0 12.5 0 a6.25 6.25 0 1 0 -12.5 0zM581.25 1387.5 a6.25 6.25 0 1 0 12.5 0 a6.25 6.25 0 1 0 -12.5 0zM581.25 1162.5 a6.25 6.25 0 1 0 12.5 0 a6.25 6.25 0 1 0 -12.5 0z" fill="rgba(152, 232, 193, 1)"></path><path d="M862.5 1462.5L862.5 1437.5L862.5 1412.5L862.5 1387.5L862.5 1362.5L862.5 1337.5L862.5 1312.5L862.5 1287.5L862.5 1262.5L862.5 1237.5L887.5 1212.5L887.5 1187.5L887.5 1162.5L887.5 1137.5L887.5 1112.5L887.5 1087.5L887.5 1062.5L887.5 1037.5L887.5 1012.5L887.5 987.5" stroke="rgba(61, 26, 120, 1)" stroke-width="4.17"></path><path d="M881.25 987.5 a6.25 6.25 0 1 0 12.5 0 a6.25 6.25 0 1 0 -12.5 0z" fill="rgba(61, 26, 120, 1)"></path><path d="M512.5 587.5L537.5 562.5L537.5 537.5L537.5 512.5M512.5 562.5L487.5 537.5L462.5 512.5L462.5 487.5M512.5 662.5L537.5 637.5L537.5 612.5L537.5 587.5L562.5 562.5M487.5 1012.5L512.5 987.5L512.5 962.5M512.5 1112.5L512.5 1087.5L512.5 1062.5L512.5 1037.5L512.5 1012.5M512.5 1212.5L537.5 1187.5L537.5 1162.5M487.5 962.5L487.5 937.5L487.5 912.5L487.5 887.5L487.5 862.5M487.5 987.5L462.5 962.5L462.5 937.5L462.5 912.5L462.5 887.5L437.5 862.5L437.5 837.5L437.5 812.5L412.5 787.5L412.5 762.5M512.5 737.5L487.5 712.5L487.5 687.5L487.5 662.5L487.5 637.5L487.5 612.5L487.5 587.5L487.5 562.5L462.5 537.5L437.5 512.5M512.5 812.5L487.5 787.5L487.5 762.5L487.5 737.5L462.5 712.5M562.5 1462.5L562.5 1437.5L537.5 1412.5L537.5 1387.5L537.5 1362.5L512.5 1337.5L512.5 1312.5L512.5 1287.5L512.5 1262.5L512.5 1237.5L512.5 1212.5L512.5 1187.5L512.5 1162.5L512.5 1137.5L512.5 1112.5L487.5 1087.5L487.5 1062.5L487.5 1037.5L487.5 1012.5L487.5 987.5L487.5 962.5L512.5 937.5L512.5 912.5L512.5 887.5L512.5 862.5L512.5 837.5L512.5 812.5L512.5 787.5L512.5 762.5L512.5 737.5L512.5 712.5L512.5 687.5L512.5 662.5L512.5 637.5L512.5 612.5L512.5 587.5L512.5 562.5L512.5 537.5L512.5 512.5L512.5 487.5L512.5 462.5L512.5 437.5" stroke="rgba(255, 255, 255, 1)" stroke-width="4.17"></path><path d="M506.25 437.5 a6.25 6.25 0 1 0 12.5 0 a6.25 6.25 0 1 0 -12.5 0zM531.25 512.5 a6.25 6.25 0 1 0 12.5 0 a6.25 6.25 0 1 0 -12.5 0zM456.25 487.5 a6.25 6.25 0 1 0 12.5 0 a6.25 6.25 0 1 0 -12.5 0zM556.25 562.5 a6.25 6.25 0 1 0 12.5 0 a6.25 6.25 0 1 0 -12.5 0zM506.25 962.5 a6.25 6.25 0 1 0 12.5 0 a6.25 6.25 0 1 0 -12.5 0zM506.25 1012.5 a6.25 6.25 0 1 0 12.5 0 a6.25 6.25 0 1 0 -12.5 0zM531.25 1162.5 a6.25 6.25 0 1 0 12.5 0 a6.25 6.25 0 1 0 -12.5 0zM481.25 862.5 a6.25 6.25 0 1 0 12.5 0 a6.25 6.25 0 1 0 -12.5 0zM406.25 762.5 a6.25 6.25 0 1 0 12.5 0 a6.25 6.25 0 1 0 -12.5 0zM431.25 512.5 a6.25 6.25 0 1 0 12.5 0 a6.25 6.25 0 1 0 -12.5 0zM456.25 712.5 a6.25 6.25 0 1 0 12.5 0 a6.25 6.25 0 1 0 -12.5 0z" fill="rgba(255, 255, 255, 1)"></path><path d="M887.5 1462.5L887.5 1437.5L887.5 1412.5L887.5 1387.5L887.5 1362.5L887.5 1337.5L887.5 1312.5L887.5 1287.5L887.5 1262.5L887.5 1237.5" stroke="rgba(152, 232, 193, 1)" stroke-width="4.17"></path><path d="M881.25 1237.5 a6.25 6.25 0 1 0 12.5 0 a6.25 6.25 0 1 0 -12.5 0z" fill="rgba(152, 232, 193, 1)"></path><path d="M512.5 1387.5L487.5 1362.5M487.5 1137.5L487.5 1112.5M462.5 1112.5L437.5 1087.5M512.5 1412.5L487.5 1387.5M537.5 1462.5L512.5 1437.5L512.5 1412.5L512.5 1387.5L512.5 1362.5L487.5 1337.5L487.5 1312.5L487.5 1287.5L487.5 1262.5L487.5 1237.5L487.5 1212.5L487.5 1187.5L487.5 1162.5L487.5 1137.5L462.5 1112.5L462.5 1087.5L462.5 1062.5" stroke="rgba(255, 255, 255, 1)" stroke-width="4.17"></path><path d="M456.25 1062.5 a6.25 6.25 0 1 0 12.5 0 a6.25 6.25 0 1 0 -12.5 0zM481.25 1362.5 a6.25 6.25 0 1 0 12.5 0 a6.25 6.25 0 1 0 -12.5 0zM481.25 1112.5 a6.25 6.25 0 1 0 12.5 0 a6.25 6.25 0 1 0 -12.5 0zM431.25 1087.5 a6.25 6.25 0 1 0 12.5 0 a6.25 6.25 0 1 0 -12.5 0zM481.25 1387.5 a6.25 6.25 0 1 0 12.5 0 a6.25 6.25 0 1 0 -12.5 0z" fill="rgba(255, 255, 255, 1)"></path><path d="M912.5 687.5L887.5 662.5L887.5 637.5L887.5 612.5M937.5 762.5L912.5 737.5L887.5 712.5M912.5 887.5L937.5 862.5L937.5 837.5L962.5 812.5L962.5 787.5M887.5 962.5L912.5 937.5L937.5 912.5L937.5 887.5L962.5 862.5M912.5 1162.5L937.5 1137.5L937.5 1112.5M912.5 1087.5L937.5 1062.5L937.5 1037.5L937.5 1012.5L937.5 987.5L962.5 962.5L962.5 937.5L962.5 912.5L962.5 887.5L987.5 862.5L987.5 837.5M912.5 1312.5L937.5 1287.5L937.5 1262.5M912.5 837.5L912.5 812.5L912.5 787.5L912.5 762.5L887.5 737.5L862.5 712.5L862.5 687.5L862.5 662.5M912.5 1462.5L912.5 1437.5L912.5 1412.5L912.5 1387.5L912.5 1362.5L912.5 1337.5L912.5 1312.5L912.5 1287.5L912.5 1262.5L912.5 1237.5L912.5 1212.5L912.5 1187.5L912.5 1162.5L912.5 1137.5L912.5 1112.5L912.5 1087.5L912.5 1062.5L912.5 1037.5L912.5 1012.5L912.5 987.5L887.5 962.5L887.5 937.5L912.5 912.5L912.5 887.5L912.5 862.5L912.5 837.5L937.5 812.5L937.5 787.5L937.5 762.5L937.5 737.5L912.5 712.5L912.5 687.5L912.5 662.5L912.5 637.5" stroke="rgba(123, 173, 226, 1)" stroke-width="4.17"></path><path d="M906.25 637.5 a6.25 6.25 0 1 0 12.5 0 a6.25 6.25 0 1 0 -12.5 0zM881.25 612.5 a6.25 6.25 0 1 0 12.5 0 a6.25 6.25 0 1 0 -12.5 0zM881.25 712.5 a6.25 6.25 0 1 0 12.5 0 a6.25 6.25 0 1 0 -12.5 0zM956.25 787.5 a6.25 6.25 0 1 0 12.5 0 a6.25 6.25 0 1 0 -12.5 0zM956.25 862.5 a6.25 6.25 0 1 0 12.5 0 a6.25 6.25 0 1 0 -12.5 0zM931.25 1112.5 a6.25 6.25 0 1 0 12.5 0 a6.25 6.25 0 1 0 -12.5 0zM981.25 837.5 a6.25 6.25 0 1 0 12.5 0 a6.25 6.25 0 1 0 -12.5 0zM931.25 1262.5 a6.25 6.25 0 1 0 12.5 0 a6.25 6.25 0 1 0 -12.5 0zM856.25 662.5 a6.25 6.25 0 1 0 12.5 0 a6.25 6.25 0 1 0 -12.5 0z" fill="rgba(123, 173, 226, 1)"></path><path d="M962.5 1362.5L937.5 1337.5L937.5 1312.5M962.5 1262.5L987.5 1237.5L987.5 1212.5M962.5 1162.5L962.5 1137.5L962.5 1112.5L962.5 1087.5M937.5 1462.5L937.5 1437.5L937.5 1412.5L962.5 1387.5L962.5 1362.5L962.5 1337.5L962.5 1312.5L962.5 1287.5L962.5 1262.5L962.5 1237.5L962.5 1212.5L962.5 1187.5L962.5 1162.5L987.5 1137.5" stroke="rgba(7, 141, 112, 1)" stroke-width="4.17"></path><path d="M981.25 1137.5 a6.25 6.25 0 1 0 12.5 0 a6.25 6.25 0 1 0 -12.5 0zM931.25 1312.5 a6.25 6.25 0 1 0 12.5 0 a6.25 6.25 0 1 0 -12.5 0zM981.25 1212.5 a6.25 6.25 0 1 0 12.5 0 a6.25 6.25 0 1 0 -12.5 0zM956.25 1087.5 a6.25 6.25 0 1 0 12.5 0 a6.25 6.25 0 1 0 -12.5 0z" fill="rgba(7, 141, 112, 1)"></path><path d="M462.5 1187.5L437.5 1162.5L437.5 1137.5M462.5 1262.5L437.5 1237.5L437.5 1212.5M462.5 1287.5L437.5 1262.5M487.5 1462.5L487.5 1437.5L462.5 1412.5L462.5 1387.5L462.5 1362.5L462.5 1337.5L462.5 1312.5L462.5 1287.5L462.5 1262.5L462.5 1237.5L462.5 1212.5L462.5 1187.5L462.5 1162.5L462.5 1137.5" stroke="rgba(152, 232, 193, 1)" stroke-width="4.17"></path><path d="M456.25 1137.5 a6.25 6.25 0 1 0 12.5 0 a6.25 6.25 0 1 0 -12.5 0zM431.25 1137.5 a6.25 6.25 0 1 0 12.5 0 a6.25 6.25 0 1 0 -12.5 0zM431.25 1212.5 a6.25 6.25 0 1 0 12.5 0 a6.25 6.25 0 1 0 -12.5 0zM431.25 1262.5 a6.25 6.25 0 1 0 12.5 0 a6.25 6.25 0 1 0 -12.5 0z" fill="rgba(152, 232, 193, 1)"></path><path d="M962.5 1437.5L962.5 1412.5M1012.5 1262.5L1037.5 1237.5M1012.5 1087.5L987.5 1062.5L987.5 1037.5L962.5 1012.5L962.5 987.5M1012.5 1137.5L1037.5 1112.5M1012.5 1062.5L1037.5 1037.5L1037.5 1012.5M962.5 1462.5L962.5 1437.5L987.5 1412.5L987.5 1387.5L987.5 1362.5L987.5 1337.5L987.5 1312.5L1012.5 1287.5L1012.5 1262.5L1012.5 1237.5L1012.5 1212.5L1012.5 1187.5L1012.5 1162.5L1012.5 1137.5L1012.5 1112.5L1012.5 1087.5L1012.5 1062.5L1012.5 1037.5L1012.5 1012.5L1012.5 987.5L1012.5 962.5" stroke="rgba(61, 26, 120, 1)" stroke-width="4.17"></path><path d="M1006.25 962.5 a6.25 6.25 0 1 0 12.5 0 a6.25 6.25 0 1 0 -12.5 0zM956.25 1412.5 a6.25 6.25 0 1 0 12.5 0 a6.25 6.25 0 1 0 -12.5 0zM1031.25 1237.5 a6.25 6.25 0 1 0 12.5 0 a6.25 6.25 0 1 0 -12.5 0zM956.25 987.5 a6.25 6.25 0 1 0 12.5 0 a6.25 6.25 0 1 0 -12.5 0zM1031.25 1112.5 a6.25 6.25 0 1 0 12.5 0 a6.25 6.25 0 1 0 -12.5 0zM1031.25 1012.5 a6.25 6.25 0 1 0 12.5 0 a6.25 6.25 0 1 0 -12.5 0z" fill="rgba(61, 26, 120, 1)"></path><path d="M387.5 962.5L362.5 937.5M387.5 987.5L412.5 962.5L412.5 937.5L412.5 912.5L412.5 887.5L412.5 862.5L412.5 837.5L412.5 812.5L387.5 787.5L387.5 762.5L387.5 737.5L387.5 712.5L387.5 687.5L387.5 662.5M387.5 1012.5L412.5 987.5L437.5 962.5L437.5 937.5M337.5 587.5L312.5 562.5M337.5 537.5L362.5 512.5L362.5 487.5M362.5 812.5L337.5 787.5L312.5 762.5L312.5 737.5L312.5 712.5L312.5 687.5L312.5 662.5L312.5 637.5L312.5 612.5L287.5 587.5M312.5 487.5L287.5 462.5L287.5 437.5L287.5 412.5L287.5 387.5L287.5 362.5L287.5 337.5L287.5 312.5L287.5 287.5M362.5 887.5L337.5 862.5L337.5 837.5L337.5 812.5L312.5 787.5M412.5 1037.5L412.5 1012.5L437.5 987.5M337.5 687.5L362.5 662.5L362.5 637.5L362.5 612.5L362.5 587.5L362.5 562.5L362.5 537.5L387.5 512.5L412.5 487.5L412.5 462.5L412.5 437.5L412.5 412.5L412.5 387.5L412.5 362.5M462.5 1462.5L462.5 1437.5L437.5 1412.5L437.5 1387.5L437.5 1362.5L437.5 1337.5L412.5 1312.5L412.5 1287.5L412.5 1262.5L412.5 1237.5L412.5 1212.5L412.5 1187.5L412.5 1162.5L412.5 1137.5L412.5 1112.5L412.5 1087.5L412.5 1062.5L412.5 1037.5L387.5 1012.5L387.5 987.5L387.5 962.5L387.5 937.5L387.5 912.5L362.5 887.5L362.5 862.5L362.5 837.5L362.5 812.5L362.5 787.5L337.5 762.5L337.5 737.5L337.5 712.5L337.5 687.5L337.5 662.5L337.5 637.5L337.5 612.5L337.5 587.5L337.5 562.5L337.5 537.5L312.5 512.5L312.5 487.5L312.5 462.5L312.5 437.5" stroke="rgba(7, 141, 112, 1)" stroke-width="4.17"></path><path d="M306.25 437.5 a6.25 6.25 0 1 0 12.5 0 a6.25 6.25 0 1 0 -12.5 0zM356.25 937.5 a6.25 6.25 0 1 0 12.5 0 a6.25 6.25 0 1 0 -12.5 0zM381.25 662.5 a6.25 6.25 0 1 0 12.5 0 a6.25 6.25 0 1 0 -12.5 0zM431.25 937.5 a6.25 6.25 0 1 0 12.5 0 a6.25 6.25 0 1 0 -12.5 0zM306.25 562.5 a6.25 6.25 0 1 0 12.5 0 a6.25 6.25 0 1 0 -12.5 0zM356.25 487.5 a6.25 6.25 0 1 0 12.5 0 a6.25 6.25 0 1 0 -12.5 0zM281.25 587.5 a6.25 6.25 0 1 0 12.5 0 a6.25 6.25 0 1 0 -12.5 0zM281.25 287.5 a6.25 6.25 0 1 0 12.5 0 a6.25 6.25 0 1 0 -12.5 0zM306.25 787.5 a6.25 6.25 0 1 0 12.5 0 a6.25 6.25 0 1 0 -12.5 0zM431.25 987.5 a6.25 6.25 0 1 0 12.5 0 a6.25 6.25 0 1 0 -12.5 0zM406.25 362.5 a6.25 6.25 0 1 0 12.5 0 a6.25 6.25 0 1 0 -12.5 0z" fill="rgba(7, 141, 112, 1)"></path><path d="M1062.5 1087.5L1037.5 1062.5M1062.5 1062.5L1062.5 1037.5L1062.5 1012.5M1037.5 1287.5L1037.5 1262.5M1062.5 1212.5L1037.5 1187.5L1037.5 1162.5L1037.5 1137.5M987.5 1462.5L987.5 1437.5L1012.5 1412.5L1012.5 1387.5L1012.5 1362.5L1012.5 1337.5L1012.5 1312.5L1037.5 1287.5L1062.5 1262.5L1062.5 1237.5L1062.5 1212.5L1062.5 1187.5L1062.5 1162.5L1062.5 1137.5L1062.5 1112.5L1062.5 1087.5L1062.5 1062.5L1087.5 1037.5L1087.5 1012.5" stroke="rgba(61, 26, 120, 1)" stroke-width="4.17"></path><path d="M1081.25 1012.5 a6.25 6.25 0 1 0 12.5 0 a6.25 6.25 0 1 0 -12.5 0zM1031.25 1062.5 a6.25 6.25 0 1 0 12.5 0 a6.25 6.25 0 1 0 -12.5 0zM1056.25 1012.5 a6.25 6.25 0 1 0 12.5 0 a6.25 6.25 0 1 0 -12.5 0zM1031.25 1262.5 a6.25 6.25 0 1 0 12.5 0 a6.25 6.25 0 1 0 -12.5 0zM1031.25 1137.5 a6.25 6.25 0 1 0 12.5 0 a6.25 6.25 0 1 0 -12.5 0z" fill="rgba(61, 26, 120, 1)"></path><path d="M387.5 1187.5L362.5 1162.5L337.5 1137.5L337.5 1112.5L337.5 1087.5M387.5 1112.5L362.5 1087.5M387.5 1137.5L362.5 1112.5M387.5 1362.5L412.5 1337.5M387.5 1387.5L412.5 1362.5M437.5 1462.5L437.5 1437.5L412.5 1412.5L387.5 1387.5L387.5 1362.5L387.5 1337.5L387.5 1312.5L387.5 1287.5L387.5 1262.5L387.5 1237.5L387.5 1212.5L387.5 1187.5L387.5 1162.5L387.5 1137.5L387.5 1112.5L387.5 1087.5L387.5 1062.5L387.5 1037.5L362.5 1012.5L362.5 987.5" stroke="rgba(80, 73, 204, 1)" stroke-width="4.17"></path><path d="M356.25 987.5 a6.25 6.25 0 1 0 12.5 0 a6.25 6.25 0 1 0 -12.5 0zM331.25 1087.5 a6.25 6.25 0 1 0 12.5 0 a6.25 6.25 0 1 0 -12.5 0zM356.25 1087.5 a6.25 6.25 0 1 0 12.5 0 a6.25 6.25 0 1 0 -12.5 0zM356.25 1112.5 a6.25 6.25 0 1 0 12.5 0 a6.25 6.25 0 1 0 -12.5 0zM406.25 1337.5 a6.25 6.25 0 1 0 12.5 0 a6.25 6.25 0 1 0 -12.5 0zM406.25 1362.5 a6.25 6.25 0 1 0 12.5 0 a6.25 6.25 0 1 0 -12.5 0z" fill="rgba(80, 73, 204, 1)"></path><path d="M1112.5 812.5L1087.5 787.5L1087.5 762.5L1087.5 737.5L1087.5 712.5M1112.5 862.5L1137.5 837.5L1137.5 812.5L1137.5 787.5L1137.5 762.5L1137.5 737.5L1137.5 712.5M1087.5 1237.5L1112.5 1212.5M1112.5 937.5L1137.5 912.5M1087.5 1137.5L1112.5 1112.5L1112.5 1087.5M1112.5 887.5L1137.5 862.5M1112.5 1012.5L1137.5 987.5L1137.5 962.5L1137.5 937.5L1162.5 912.5M1012.5 1462.5L1037.5 1437.5L1037.5 1412.5L1037.5 1387.5L1037.5 1362.5L1037.5 1337.5L1037.5 1312.5L1062.5 1287.5L1087.5 1262.5L1087.5 1237.5L1087.5 1212.5L1087.5 1187.5L1087.5 1162.5L1087.5 1137.5L1087.5 1112.5L1087.5 1087.5L1087.5 1062.5L1112.5 1037.5L1112.5 1012.5L1112.5 987.5L1112.5 962.5L1112.5 937.5L1112.5 912.5L1112.5 887.5L1112.5 862.5L1112.5 837.5L1112.5 812.5L1112.5 787.5L1112.5 762.5" stroke="rgba(123, 173, 226, 1)" stroke-width="4.17"></path><path d="M1106.25 762.5 a6.25 6.25 0 1 0 12.5 0 a6.25 6.25 0 1 0 -12.5 0zM1081.25 712.5 a6.25 6.25 0 1 0 12.5 0 a6.25 6.25 0 1 0 -12.5 0zM1131.25 712.5 a6.25 6.25 0 1 0 12.5 0 a6.25 6.25 0 1 0 -12.5 0zM1106.25 1212.5 a6.25 6.25 0 1 0 12.5 0 a6.25 6.25 0 1 0 -12.5 0zM1131.25 912.5 a6.25 6.25 0 1 0 12.5 0 a6.25 6.25 0 1 0 -12.5 0zM1106.25 1087.5 a6.25 6.25 0 1 0 12.5 0 a6.25 6.25 0 1 0 -12.5 0zM1131.25 862.5 a6.25 6.25 0 1 0 12.5 0 a6.25 6.25 0 1 0 -12.5 0zM1156.25 912.5 a6.25 6.25 0 1 0 12.5 0 a6.25 6.25 0 1 0 -12.5 0z" fill="rgba(123, 173, 226, 1)"></path><path d="M312.5 1212.5L337.5 1187.5L337.5 1162.5M312.5 1062.5L337.5 1037.5M337.5 987.5L312.5 962.5L312.5 937.5M337.5 1262.5L362.5 1237.5L362.5 1212.5M312.5 912.5L312.5 887.5M287.5 862.5L312.5 837.5L312.5 812.5M337.5 937.5L337.5 912.5L337.5 887.5M362.5 1287.5L362.5 1262.5M387.5 1462.5L387.5 1437.5L387.5 1412.5L362.5 1387.5L362.5 1362.5L362.5 1337.5L362.5 1312.5L362.5 1287.5L337.5 1262.5L337.5 1237.5L312.5 1212.5L312.5 1187.5L312.5 1162.5L312.5 1137.5L312.5 1112.5L312.5 1087.5L312.5 1062.5L312.5 1037.5L312.5 1012.5L337.5 987.5L337.5 962.5L337.5 937.5L312.5 912.5L287.5 887.5L287.5 862.5L287.5 837.5L287.5 812.5L287.5 787.5L287.5 762.5L287.5 737.5L287.5 712.5L287.5 687.5L287.5 662.5" stroke="rgba(255, 255, 255, 1)" stroke-width="4.17"></path><path d="M281.25 662.5 a6.25 6.25 0 1 0 12.5 0 a6.25 6.25 0 1 0 -12.5 0zM331.25 1162.5 a6.25 6.25 0 1 0 12.5 0 a6.25 6.25 0 1 0 -12.5 0zM331.25 1037.5 a6.25 6.25 0 1 0 12.5 0 a6.25 6.25 0 1 0 -12.5 0zM306.25 937.5 a6.25 6.25 0 1 0 12.5 0 a6.25 6.25 0 1 0 -12.5 0zM356.25 1212.5 a6.25 6.25 0 1 0 12.5 0 a6.25 6.25 0 1 0 -12.5 0zM306.25 887.5 a6.25 6.25 0 1 0 12.5 0 a6.25 6.25 0 1 0 -12.5 0zM306.25 812.5 a6.25 6.25 0 1 0 12.5 0 a6.25 6.25 0 1 0 -12.5 0zM331.25 887.5 a6.25 6.25 0 1 0 12.5 0 a6.25 6.25 0 1 0 -12.5 0zM356.25 1262.5 a6.25 6.25 0 1 0 12.5 0 a6.25 6.25 0 1 0 -12.5 0z" fill="rgba(255, 255, 255, 1)"></path><path d="M1062.5 1362.5L1087.5 1337.5L1087.5 1312.5L1112.5 1287.5L1112.5 1262.5M1062.5 1412.5L1087.5 1387.5L1087.5 1362.5M1062.5 1462.5L1062.5 1437.5L1062.5 1412.5L1062.5 1387.5L1062.5 1362.5L1062.5 1337.5L1062.5 1312.5L1087.5 1287.5" stroke="rgba(123, 173, 226, 1)" stroke-width="4.17"></path><path d="M1081.25 1287.5 a6.25 6.25 0 1 0 12.5 0 a6.25 6.25 0 1 0 -12.5 0zM1106.25 1262.5 a6.25 6.25 0 1 0 12.5 0 a6.25 6.25 0 1 0 -12.5 0zM1081.25 1362.5 a6.25 6.25 0 1 0 12.5 0 a6.25 6.25 0 1 0 -12.5 0z" fill="rgba(123, 173, 226, 1)"></path><path d="M262.5 762.5L237.5 737.5L237.5 712.5L237.5 687.5L237.5 662.5L237.5 637.5L237.5 612.5M337.5 1337.5L312.5 1312.5L312.5 1287.5L287.5 1262.5L287.5 1237.5L262.5 1212.5L237.5 1187.5L237.5 1162.5L237.5 1137.5L237.5 1112.5M262.5 637.5L287.5 612.5M287.5 987.5L262.5 962.5L262.5 937.5L262.5 912.5L237.5 887.5L237.5 862.5L237.5 837.5L237.5 812.5L237.5 787.5M287.5 1137.5L262.5 1112.5L262.5 1087.5L262.5 1062.5L262.5 1037.5L262.5 1012.5M337.5 1387.5L312.5 1362.5L312.5 1337.5L287.5 1312.5L287.5 1287.5L262.5 1262.5L262.5 1237.5M262.5 587.5L237.5 562.5L237.5 537.5L237.5 512.5L237.5 487.5L237.5 462.5L237.5 437.5L237.5 412.5L237.5 387.5L237.5 362.5L237.5 337.5L237.5 312.5M362.5 1437.5L337.5 1412.5L312.5 1387.5L287.5 1362.5L287.5 1337.5L262.5 1312.5M262.5 562.5L287.5 537.5L287.5 512.5L287.5 487.5L262.5 462.5L262.5 437.5M362.5 1462.5L362.5 1437.5L362.5 1412.5L337.5 1387.5L337.5 1362.5L337.5 1337.5L337.5 1312.5L337.5 1287.5L312.5 1262.5L312.5 1237.5L287.5 1212.5L287.5 1187.5L287.5 1162.5L287.5 1137.5L287.5 1112.5L287.5 1087.5L287.5 1062.5L287.5 1037.5L287.5 1012.5L287.5 987.5L287.5 962.5L287.5 937.5L287.5 912.5L262.5 887.5L262.5 862.5L262.5 837.5L262.5 812.5L262.5 787.5L262.5 762.5L262.5 737.5L262.5 712.5L262.5 687.5L262.5 662.5L262.5 637.5L262.5 612.5L262.5 587.5L262.5 562.5L262.5 537.5L262.5 512.5" stroke="rgba(152, 232, 193, 1)" stroke-width="4.17"></path><path d="M256.25 512.5 a6.25 6.25 0 1 0 12.5 0 a6.25 6.25 0 1 0 -12.5 0zM231.25 612.5 a6.25 6.25 0 1 0 12.5 0 a6.25 6.25 0 1 0 -12.5 0zM231.25 1112.5 a6.25 6.25 0 1 0 12.5 0 a6.25 6.25 0 1 0 -12.5 0zM281.25 612.5 a6.25 6.25 0 1 0 12.5 0 a6.25 6.25 0 1 0 -12.5 0zM231.25 787.5 a6.25 6.25 0 1 0 12.5 0 a6.25 6.25 0 1 0 -12.5 0zM256.25 1012.5 a6.25 6.25 0 1 0 12.5 0 a6.25 6.25 0 1 0 -12.5 0zM256.25 1237.5 a6.25 6.25 0 1 0 12.5 0 a6.25 6.25 0 1 0 -12.5 0zM231.25 312.5 a6.25 6.25 0 1 0 12.5 0 a6.25 6.25 0 1 0 -12.5 0zM256.25 1312.5 a6.25 6.25 0 1 0 12.5 0 a6.25 6.25 0 1 0 -12.5 0zM256.25 437.5 a6.25 6.25 0 1 0 12.5 0 a6.25 6.25 0 1 0 -12.5 0z" fill="rgba(152, 232, 193, 1)"></path></g></g><defs><mask id="SvgjsMask1284"><rect width="1440" height="1440" fill="#ffffff"></rect></mask><mask id="SvgjsMask1285"><rect width="1440" height="1440" fill="white"></rect><path d="M709.37 937.5 a3.13 3.13 0 1 0 6.26 0 a3.13 3.13 0 1 0 -6.26 0zM734.37 962.5 a3.13 3.13 0 1 0 6.26 0 a3.13 3.13 0 1 0 -6.26 0z" fill="black"></path><path d="M734.37 337.5 a3.13 3.13 0 1 0 6.26 0 a3.13 3.13 0 1 0 -6.26 0zM759.37 1337.5 a3.13 3.13 0 1 0 6.26 0 a3.13 3.13 0 1 0 -6.26 0zM784.37 887.5 a3.13 3.13 0 1 0 6.26 0 a3.13 3.13 0 1 0 -6.26 0zM809.37 537.5 a3.13 3.13 0 1 0 6.26 0 a3.13 3.13 0 1 0 -6.26 0zM759.37 287.5 a3.13 3.13 0 1 0 6.26 0 a3.13 3.13 0 1 0 -6.26 0zM759.37 1412.5 a3.13 3.13 0 1 0 6.26 0 a3.13 3.13 0 1 0 -6.26 0zM759.37 1087.5 a3.13 3.13 0 1 0 6.26 0 a3.13 3.13 0 1 0 -6.26 0zM709.37 287.5 a3.13 3.13 0 1 0 6.26 0 a3.13 3.13 0 1 0 -6.26 0zM834.37 687.5 a3.13 3.13 0 1 0 6.26 0 a3.13 3.13 0 1 0 -6.26 0zM734.37 787.5 a3.13 3.13 0 1 0 6.26 0 a3.13 3.13 0 1 0 -6.26 0zM759.37 687.5 a3.13 3.13 0 1 0 6.26 0 a3.13 3.13 0 1 0 -6.26 0zM759.37 862.5 a3.13 3.13 0 1 0 6.26 0 a3.13 3.13 0 1 0 -6.26 0z" fill="black"></path><path d="M659.37 712.5 a3.13 3.13 0 1 0 6.26 0 a3.13 3.13 0 1 0 -6.26 0zM659.37 887.5 a3.13 3.13 0 1 0 6.26 0 a3.13 3.13 0 1 0 -6.26 0zM709.37 612.5 a3.13 3.13 0 1 0 6.26 0 a3.13 3.13 0 1 0 -6.26 0zM659.37 1037.5 a3.13 3.13 0 1 0 6.26 0 a3.13 3.13 0 1 0 -6.26 0zM659.37 962.5 a3.13 3.13 0 1 0 6.26 0 a3.13 3.13 0 1 0 -6.26 0zM734.37 737.5 a3.13 3.13 0 1 0 6.26 0 a3.13 3.13 0 1 0 -6.26 0zM634.37 1112.5 a3.13 3.13 0 1 0 6.26 0 a3.13 3.13 0 1 0 -6.26 0z" fill="black"></path><path d="M784.37 1362.5 a3.13 3.13 0 1 0 6.26 0 a3.13 3.13 0 1 0 -6.26 0zM809.37 1362.5 a3.13 3.13 0 1 0 6.26 0 a3.13 3.13 0 1 0 -6.26 0z" fill="black"></path><path d="M634.37 1162.5 a3.13 3.13 0 1 0 6.26 0 a3.13 3.13 0 1 0 -6.26 0zM659.37 1162.5 a3.13 3.13 0 1 0 6.26 0 a3.13 3.13 0 1 0 -6.26 0z" fill="black"></path><path d="M634.37 362.5 a3.13 3.13 0 1 0 6.26 0 a3.13 3.13 0 1 0 -6.26 0zM634.37 562.5 a3.13 3.13 0 1 0 6.26 0 a3.13 3.13 0 1 0 -6.26 0zM634.37 1037.5 a3.13 3.13 0 1 0 6.26 0 a3.13 3.13 0 1 0 -6.26 0zM584.37 512.5 a3.13 3.13 0 1 0 6.26 0 a3.13 3.13 0 1 0 -6.26 0zM659.37 387.5 a3.13 3.13 0 1 0 6.26 0 a3.13 3.13 0 1 0 -6.26 0zM584.37 537.5 a3.13 3.13 0 1 0 6.26 0 a3.13 3.13 0 1 0 -6.26 0zM559.37 512.5 a3.13 3.13 0 1 0 6.26 0 a3.13 3.13 0 1 0 -6.26 0zM659.37 562.5 a3.13 3.13 0 1 0 6.26 0 a3.13 3.13 0 1 0 -6.26 0zM584.37 712.5 a3.13 3.13 0 1 0 6.26 0 a3.13 3.13 0 1 0 -6.26 0zM584.37 837.5 a3.13 3.13 0 1 0 6.26 0 a3.13 3.13 0 1 0 -6.26 0zM609.37 287.5 a3.13 3.13 0 1 0 6.26 0 a3.13 3.13 0 1 0 -6.26 0zM609.37 1187.5 a3.13 3.13 0 1 0 6.26 0 a3.13 3.13 0 1 0 -6.26 0z" fill="black"></path><path d="M884.37 787.5 a3.13 3.13 0 1 0 6.26 0 a3.13 3.13 0 1 0 -6.26 0zM809.37 1012.5 a3.13 3.13 0 1 0 6.26 0 a3.13 3.13 0 1 0 -6.26 0zM809.37 1037.5 a3.13 3.13 0 1 0 6.26 0 a3.13 3.13 0 1 0 -6.26 0zM809.37 1237.5 a3.13 3.13 0 1 0 6.26 0 a3.13 3.13 0 1 0 -6.26 0zM834.37 937.5 a3.13 3.13 0 1 0 6.26 0 a3.13 3.13 0 1 0 -6.26 0zM859.37 837.5 a3.13 3.13 0 1 0 6.26 0 a3.13 3.13 0 1 0 -6.26 0zM784.37 1037.5 a3.13 3.13 0 1 0 6.26 0 a3.13 3.13 0 1 0 -6.26 0zM784.37 1237.5 a3.13 3.13 0 1 0 6.26 0 a3.13 3.13 0 1 0 -6.26 0z" fill="black"></path><path d="M609.37 1312.5 a3.13 3.13 0 1 0 6.26 0 a3.13 3.13 0 1 0 -6.26 0zM609.37 1287.5 a3.13 3.13 0 1 0 6.26 0 a3.13 3.13 0 1 0 -6.26 0z" fill="black"></path><path d="M559.37 712.5 a3.13 3.13 0 1 0 6.26 0 a3.13 3.13 0 1 0 -6.26 0zM534.37 962.5 a3.13 3.13 0 1 0 6.26 0 a3.13 3.13 0 1 0 -6.26 0zM534.37 687.5 a3.13 3.13 0 1 0 6.26 0 a3.13 3.13 0 1 0 -6.26 0zM584.37 862.5 a3.13 3.13 0 1 0 6.26 0 a3.13 3.13 0 1 0 -6.26 0zM534.37 787.5 a3.13 3.13 0 1 0 6.26 0 a3.13 3.13 0 1 0 -6.26 0zM559.37 987.5 a3.13 3.13 0 1 0 6.26 0 a3.13 3.13 0 1 0 -6.26 0zM584.37 1387.5 a3.13 3.13 0 1 0 6.26 0 a3.13 3.13 0 1 0 -6.26 0zM584.37 1162.5 a3.13 3.13 0 1 0 6.26 0 a3.13 3.13 0 1 0 -6.26 0z" fill="black"></path><path d="M884.37 987.5 a3.13 3.13 0 1 0 6.26 0 a3.13 3.13 0 1 0 -6.26 0z" fill="black"></path><path d="M509.37 437.5 a3.13 3.13 0 1 0 6.26 0 a3.13 3.13 0 1 0 -6.26 0zM534.37 512.5 a3.13 3.13 0 1 0 6.26 0 a3.13 3.13 0 1 0 -6.26 0zM459.37 487.5 a3.13 3.13 0 1 0 6.26 0 a3.13 3.13 0 1 0 -6.26 0zM559.37 562.5 a3.13 3.13 0 1 0 6.26 0 a3.13 3.13 0 1 0 -6.26 0zM509.37 962.5 a3.13 3.13 0 1 0 6.26 0 a3.13 3.13 0 1 0 -6.26 0zM509.37 1012.5 a3.13 3.13 0 1 0 6.26 0 a3.13 3.13 0 1 0 -6.26 0zM534.37 1162.5 a3.13 3.13 0 1 0 6.26 0 a3.13 3.13 0 1 0 -6.26 0zM484.37 862.5 a3.13 3.13 0 1 0 6.26 0 a3.13 3.13 0 1 0 -6.26 0zM409.37 762.5 a3.13 3.13 0 1 0 6.26 0 a3.13 3.13 0 1 0 -6.26 0zM434.37 512.5 a3.13 3.13 0 1 0 6.26 0 a3.13 3.13 0 1 0 -6.26 0zM459.37 712.5 a3.13 3.13 0 1 0 6.26 0 a3.13 3.13 0 1 0 -6.26 0z" fill="black"></path><path d="M884.37 1237.5 a3.13 3.13 0 1 0 6.26 0 a3.13 3.13 0 1 0 -6.26 0z" fill="black"></path><path d="M459.37 1062.5 a3.13 3.13 0 1 0 6.26 0 a3.13 3.13 0 1 0 -6.26 0zM484.37 1362.5 a3.13 3.13 0 1 0 6.26 0 a3.13 3.13 0 1 0 -6.26 0zM484.37 1112.5 a3.13 3.13 0 1 0 6.26 0 a3.13 3.13 0 1 0 -6.26 0zM434.37 1087.5 a3.13 3.13 0 1 0 6.26 0 a3.13 3.13 0 1 0 -6.26 0zM484.37 1387.5 a3.13 3.13 0 1 0 6.26 0 a3.13 3.13 0 1 0 -6.26 0z" fill="black"></path><path d="M909.37 637.5 a3.13 3.13 0 1 0 6.26 0 a3.13 3.13 0 1 0 -6.26 0zM884.37 612.5 a3.13 3.13 0 1 0 6.26 0 a3.13 3.13 0 1 0 -6.26 0zM884.37 712.5 a3.13 3.13 0 1 0 6.26 0 a3.13 3.13 0 1 0 -6.26 0zM959.37 787.5 a3.13 3.13 0 1 0 6.26 0 a3.13 3.13 0 1 0 -6.26 0zM959.37 862.5 a3.13 3.13 0 1 0 6.26 0 a3.13 3.13 0 1 0 -6.26 0zM934.37 1112.5 a3.13 3.13 0 1 0 6.26 0 a3.13 3.13 0 1 0 -6.26 0zM984.37 837.5 a3.13 3.13 0 1 0 6.26 0 a3.13 3.13 0 1 0 -6.26 0zM934.37 1262.5 a3.13 3.13 0 1 0 6.26 0 a3.13 3.13 0 1 0 -6.26 0zM859.37 662.5 a3.13 3.13 0 1 0 6.26 0 a3.13 3.13 0 1 0 -6.26 0z" fill="black"></path><path d="M984.37 1137.5 a3.13 3.13 0 1 0 6.26 0 a3.13 3.13 0 1 0 -6.26 0zM934.37 1312.5 a3.13 3.13 0 1 0 6.26 0 a3.13 3.13 0 1 0 -6.26 0zM984.37 1212.5 a3.13 3.13 0 1 0 6.26 0 a3.13 3.13 0 1 0 -6.26 0zM959.37 1087.5 a3.13 3.13 0 1 0 6.26 0 a3.13 3.13 0 1 0 -6.26 0z" fill="black"></path><path d="M459.37 1137.5 a3.13 3.13 0 1 0 6.26 0 a3.13 3.13 0 1 0 -6.26 0zM434.37 1137.5 a3.13 3.13 0 1 0 6.26 0 a3.13 3.13 0 1 0 -6.26 0zM434.37 1212.5 a3.13 3.13 0 1 0 6.26 0 a3.13 3.13 0 1 0 -6.26 0zM434.37 1262.5 a3.13 3.13 0 1 0 6.26 0 a3.13 3.13 0 1 0 -6.26 0z" fill="black"></path><path d="M1009.37 962.5 a3.13 3.13 0 1 0 6.26 0 a3.13 3.13 0 1 0 -6.26 0zM959.37 1412.5 a3.13 3.13 0 1 0 6.26 0 a3.13 3.13 0 1 0 -6.26 0zM1034.37 1237.5 a3.13 3.13 0 1 0 6.26 0 a3.13 3.13 0 1 0 -6.26 0zM959.37 987.5 a3.13 3.13 0 1 0 6.26 0 a3.13 3.13 0 1 0 -6.26 0zM1034.37 1112.5 a3.13 3.13 0 1 0 6.26 0 a3.13 3.13 0 1 0 -6.26 0zM1034.37 1012.5 a3.13 3.13 0 1 0 6.26 0 a3.13 3.13 0 1 0 -6.26 0z" fill="black"></path><path d="M309.37 437.5 a3.13 3.13 0 1 0 6.26 0 a3.13 3.13 0 1 0 -6.26 0zM359.37 937.5 a3.13 3.13 0 1 0 6.26 0 a3.13 3.13 0 1 0 -6.26 0zM384.37 662.5 a3.13 3.13 0 1 0 6.26 0 a3.13 3.13 0 1 0 -6.26 0zM434.37 937.5 a3.13 3.13 0 1 0 6.26 0 a3.13 3.13 0 1 0 -6.26 0zM309.37 562.5 a3.13 3.13 0 1 0 6.26 0 a3.13 3.13 0 1 0 -6.26 0zM359.37 487.5 a3.13 3.13 0 1 0 6.26 0 a3.13 3.13 0 1 0 -6.26 0zM284.37 587.5 a3.13 3.13 0 1 0 6.26 0 a3.13 3.13 0 1 0 -6.26 0zM284.37 287.5 a3.13 3.13 0 1 0 6.26 0 a3.13 3.13 0 1 0 -6.26 0zM309.37 787.5 a3.13 3.13 0 1 0 6.26 0 a3.13 3.13 0 1 0 -6.26 0zM434.37 987.5 a3.13 3.13 0 1 0 6.26 0 a3.13 3.13 0 1 0 -6.26 0zM409.37 362.5 a3.13 3.13 0 1 0 6.26 0 a3.13 3.13 0 1 0 -6.26 0z" fill="black"></path><path d="M1084.37 1012.5 a3.13 3.13 0 1 0 6.26 0 a3.13 3.13 0 1 0 -6.26 0zM1034.37 1062.5 a3.13 3.13 0 1 0 6.26 0 a3.13 3.13 0 1 0 -6.26 0zM1059.37 1012.5 a3.13 3.13 0 1 0 6.26 0 a3.13 3.13 0 1 0 -6.26 0zM1034.37 1262.5 a3.13 3.13 0 1 0 6.26 0 a3.13 3.13 0 1 0 -6.26 0zM1034.37 1137.5 a3.13 3.13 0 1 0 6.26 0 a3.13 3.13 0 1 0 -6.26 0z" fill="black"></path><path d="M359.37 987.5 a3.13 3.13 0 1 0 6.26 0 a3.13 3.13 0 1 0 -6.26 0zM334.37 1087.5 a3.13 3.13 0 1 0 6.26 0 a3.13 3.13 0 1 0 -6.26 0zM359.37 1087.5 a3.13 3.13 0 1 0 6.26 0 a3.13 3.13 0 1 0 -6.26 0zM359.37 1112.5 a3.13 3.13 0 1 0 6.26 0 a3.13 3.13 0 1 0 -6.26 0zM409.37 1337.5 a3.13 3.13 0 1 0 6.26 0 a3.13 3.13 0 1 0 -6.26 0zM409.37 1362.5 a3.13 3.13 0 1 0 6.26 0 a3.13 3.13 0 1 0 -6.26 0z" fill="black"></path><path d="M1109.37 762.5 a3.13 3.13 0 1 0 6.26 0 a3.13 3.13 0 1 0 -6.26 0zM1084.37 712.5 a3.13 3.13 0 1 0 6.26 0 a3.13 3.13 0 1 0 -6.26 0zM1134.37 712.5 a3.13 3.13 0 1 0 6.26 0 a3.13 3.13 0 1 0 -6.26 0zM1109.37 1212.5 a3.13 3.13 0 1 0 6.26 0 a3.13 3.13 0 1 0 -6.26 0zM1134.37 912.5 a3.13 3.13 0 1 0 6.26 0 a3.13 3.13 0 1 0 -6.26 0zM1109.37 1087.5 a3.13 3.13 0 1 0 6.26 0 a3.13 3.13 0 1 0 -6.26 0zM1134.37 862.5 a3.13 3.13 0 1 0 6.26 0 a3.13 3.13 0 1 0 -6.26 0zM1159.37 912.5 a3.13 3.13 0 1 0 6.26 0 a3.13 3.13 0 1 0 -6.26 0z" fill="black"></path><path d="M284.37 662.5 a3.13 3.13 0 1 0 6.26 0 a3.13 3.13 0 1 0 -6.26 0zM334.37 1162.5 a3.13 3.13 0 1 0 6.26 0 a3.13 3.13 0 1 0 -6.26 0zM334.37 1037.5 a3.13 3.13 0 1 0 6.26 0 a3.13 3.13 0 1 0 -6.26 0zM309.37 937.5 a3.13 3.13 0 1 0 6.26 0 a3.13 3.13 0 1 0 -6.26 0zM359.37 1212.5 a3.13 3.13 0 1 0 6.26 0 a3.13 3.13 0 1 0 -6.26 0zM309.37 887.5 a3.13 3.13 0 1 0 6.26 0 a3.13 3.13 0 1 0 -6.26 0zM309.37 812.5 a3.13 3.13 0 1 0 6.26 0 a3.13 3.13 0 1 0 -6.26 0zM334.37 887.5 a3.13 3.13 0 1 0 6.26 0 a3.13 3.13 0 1 0 -6.26 0zM359.37 1262.5 a3.13 3.13 0 1 0 6.26 0 a3.13 3.13 0 1 0 -6.26 0z" fill="black"></path><path d="M1084.37 1287.5 a3.13 3.13 0 1 0 6.26 0 a3.13 3.13 0 1 0 -6.26 0zM1109.37 1262.5 a3.13 3.13 0 1 0 6.26 0 a3.13 3.13 0 1 0 -6.26 0zM1084.37 1362.5 a3.13 3.13 0 1 0 6.26 0 a3.13 3.13 0 1 0 -6.26 0z" fill="black"></path><path d="M259.37 512.5 a3.13 3.13 0 1 0 6.26 0 a3.13 3.13 0 1 0 -6.26 0zM234.37 612.5 a3.13 3.13 0 1 0 6.26 0 a3.13 3.13 0 1 0 -6.26 0zM234.37 1112.5 a3.13 3.13 0 1 0 6.26 0 a3.13 3.13 0 1 0 -6.26 0zM284.37 612.5 a3.13 3.13 0 1 0 6.26 0 a3.13 3.13 0 1 0 -6.26 0zM234.37 787.5 a3.13 3.13 0 1 0 6.26 0 a3.13 3.13 0 1 0 -6.26 0zM259.37 1012.5 a3.13 3.13 0 1 0 6.26 0 a3.13 3.13 0 1 0 -6.26 0zM259.37 1237.5 a3.13 3.13 0 1 0 6.26 0 a3.13 3.13 0 1 0 -6.26 0zM234.37 312.5 a3.13 3.13 0 1 0 6.26 0 a3.13 3.13 0 1 0 -6.26 0zM259.37 1312.5 a3.13 3.13 0 1 0 6.26 0 a3.13 3.13 0 1 0 -6.26 0zM259.37 437.5 a3.13 3.13 0 1 0 6.26 0 a3.13 3.13 0 1 0 -6.26 0z" fill="black"></path></mask></defs></svg>